<mxfile host="app.diagrams.net" modified="2023-03-08T11:35:15.953Z" agent="5.0 (Windows NT 10.0; Win64; x64) AppleWebKit/537.36 (KHTML, like Gecko) Chrome/110.0.0.0 Safari/537.36" etag="Alde8x36lV2oqGWFF8dg" version="21.0.2" type="github">
  <diagram name="Strona-1" id="Fl8cll0ZpINhKZSX7JAm">
    <mxGraphModel dx="1434" dy="796" grid="1" gridSize="10" guides="1" tooltips="1" connect="1" arrows="1" fold="1" page="1" pageScale="1" pageWidth="827" pageHeight="1169" math="0" shadow="0">
      <root>
        <mxCell id="0" />
        <mxCell id="1" parent="0" />
        <mxCell id="Dh04dN3c_2LMZqxUtAss-3" style="edgeStyle=orthogonalEdgeStyle;rounded=0;orthogonalLoop=1;jettySize=auto;html=1;exitX=0.5;exitY=1;exitDx=0;exitDy=0;entryX=0.5;entryY=0;entryDx=0;entryDy=0;" edge="1" parent="1" source="Dh04dN3c_2LMZqxUtAss-1" target="Dh04dN3c_2LMZqxUtAss-2">
          <mxGeometry relative="1" as="geometry" />
        </mxCell>
        <mxCell id="Dh04dN3c_2LMZqxUtAss-1" value="Start" style="ellipse;whiteSpace=wrap;html=1;" vertex="1" parent="1">
          <mxGeometry x="354" y="50" width="120" height="80" as="geometry" />
        </mxCell>
        <mxCell id="Dh04dN3c_2LMZqxUtAss-5" style="edgeStyle=orthogonalEdgeStyle;rounded=0;orthogonalLoop=1;jettySize=auto;html=1;exitX=0.5;exitY=1;exitDx=0;exitDy=0;entryX=0.5;entryY=0;entryDx=0;entryDy=0;" edge="1" parent="1" source="Dh04dN3c_2LMZqxUtAss-2" target="Dh04dN3c_2LMZqxUtAss-4">
          <mxGeometry relative="1" as="geometry" />
        </mxCell>
        <mxCell id="Dh04dN3c_2LMZqxUtAss-2" value="podaj a&lt;br&gt;podaj b&lt;br&gt;i = 0" style="rounded=0;whiteSpace=wrap;html=1;" vertex="1" parent="1">
          <mxGeometry x="354" y="150" width="120" height="60" as="geometry" />
        </mxCell>
        <mxCell id="Dh04dN3c_2LMZqxUtAss-7" style="edgeStyle=orthogonalEdgeStyle;rounded=0;orthogonalLoop=1;jettySize=auto;html=1;exitX=1;exitY=0.5;exitDx=0;exitDy=0;entryX=0;entryY=0.5;entryDx=0;entryDy=0;" edge="1" parent="1" source="Dh04dN3c_2LMZqxUtAss-4" target="Dh04dN3c_2LMZqxUtAss-6">
          <mxGeometry relative="1" as="geometry" />
        </mxCell>
        <mxCell id="Dh04dN3c_2LMZqxUtAss-4" value="a + b = c" style="rounded=0;whiteSpace=wrap;html=1;" vertex="1" parent="1">
          <mxGeometry x="354" y="270" width="120" height="60" as="geometry" />
        </mxCell>
        <mxCell id="Dh04dN3c_2LMZqxUtAss-8" style="edgeStyle=orthogonalEdgeStyle;rounded=0;orthogonalLoop=1;jettySize=auto;html=1;exitX=0.5;exitY=1;exitDx=0;exitDy=0;entryX=0.5;entryY=0;entryDx=0;entryDy=0;" edge="1" parent="1" source="Dh04dN3c_2LMZqxUtAss-6" target="Dh04dN3c_2LMZqxUtAss-9">
          <mxGeometry relative="1" as="geometry">
            <mxPoint x="570" y="380" as="targetPoint" />
          </mxGeometry>
        </mxCell>
        <mxCell id="Dh04dN3c_2LMZqxUtAss-6" value="WyÅ›wietl c" style="rounded=0;whiteSpace=wrap;html=1;" vertex="1" parent="1">
          <mxGeometry x="510" y="270" width="120" height="60" as="geometry" />
        </mxCell>
        <mxCell id="Dh04dN3c_2LMZqxUtAss-19" style="edgeStyle=orthogonalEdgeStyle;rounded=0;orthogonalLoop=1;jettySize=auto;html=1;exitX=0;exitY=0.5;exitDx=0;exitDy=0;entryX=1;entryY=0.5;entryDx=0;entryDy=0;" edge="1" parent="1" source="Dh04dN3c_2LMZqxUtAss-9" target="Dh04dN3c_2LMZqxUtAss-12">
          <mxGeometry relative="1" as="geometry" />
        </mxCell>
        <mxCell id="Dh04dN3c_2LMZqxUtAss-9" value="b + c = a" style="rounded=0;whiteSpace=wrap;html=1;" vertex="1" parent="1">
          <mxGeometry x="510" y="470" width="120" height="60" as="geometry" />
        </mxCell>
        <mxCell id="Dh04dN3c_2LMZqxUtAss-13" style="edgeStyle=orthogonalEdgeStyle;rounded=0;orthogonalLoop=1;jettySize=auto;html=1;exitX=0;exitY=0.5;exitDx=0;exitDy=0;entryX=1;entryY=0.5;entryDx=0;entryDy=0;" edge="1" parent="1" source="Dh04dN3c_2LMZqxUtAss-12" target="Dh04dN3c_2LMZqxUtAss-14">
          <mxGeometry relative="1" as="geometry">
            <mxPoint x="380" y="500" as="targetPoint" />
          </mxGeometry>
        </mxCell>
        <mxCell id="Dh04dN3c_2LMZqxUtAss-12" value="Wyswietl a" style="rounded=0;whiteSpace=wrap;html=1;" vertex="1" parent="1">
          <mxGeometry x="354" y="470" width="120" height="60" as="geometry" />
        </mxCell>
        <mxCell id="Dh04dN3c_2LMZqxUtAss-15" style="edgeStyle=orthogonalEdgeStyle;rounded=0;orthogonalLoop=1;jettySize=auto;html=1;exitX=0.5;exitY=0;exitDx=0;exitDy=0;entryX=0.5;entryY=1;entryDx=0;entryDy=0;" edge="1" parent="1" source="Dh04dN3c_2LMZqxUtAss-14" target="Dh04dN3c_2LMZqxUtAss-16">
          <mxGeometry relative="1" as="geometry">
            <mxPoint x="320" y="420" as="targetPoint" />
          </mxGeometry>
        </mxCell>
        <mxCell id="Dh04dN3c_2LMZqxUtAss-14" value="c + a = b" style="rounded=0;whiteSpace=wrap;html=1;" vertex="1" parent="1">
          <mxGeometry x="190" y="470" width="120" height="60" as="geometry" />
        </mxCell>
        <mxCell id="Dh04dN3c_2LMZqxUtAss-21" style="edgeStyle=orthogonalEdgeStyle;rounded=0;orthogonalLoop=1;jettySize=auto;html=1;exitX=0.5;exitY=0;exitDx=0;exitDy=0;entryX=0.5;entryY=1;entryDx=0;entryDy=0;" edge="1" parent="1" source="Dh04dN3c_2LMZqxUtAss-16" target="Dh04dN3c_2LMZqxUtAss-20">
          <mxGeometry relative="1" as="geometry" />
        </mxCell>
        <mxCell id="Dh04dN3c_2LMZqxUtAss-16" value="&amp;nbsp;wyswietl b" style="rounded=0;whiteSpace=wrap;html=1;" vertex="1" parent="1">
          <mxGeometry x="190" y="360" width="120" height="60" as="geometry" />
        </mxCell>
        <mxCell id="Dh04dN3c_2LMZqxUtAss-22" style="edgeStyle=orthogonalEdgeStyle;rounded=0;orthogonalLoop=1;jettySize=auto;html=1;exitX=0.5;exitY=0;exitDx=0;exitDy=0;" edge="1" parent="1" source="Dh04dN3c_2LMZqxUtAss-20">
          <mxGeometry relative="1" as="geometry">
            <mxPoint x="250" y="240" as="targetPoint" />
          </mxGeometry>
        </mxCell>
        <mxCell id="Dh04dN3c_2LMZqxUtAss-20" value="i + 1" style="rounded=0;whiteSpace=wrap;html=1;" vertex="1" parent="1">
          <mxGeometry x="190" y="270" width="120" height="60" as="geometry" />
        </mxCell>
        <mxCell id="Dh04dN3c_2LMZqxUtAss-24" style="edgeStyle=orthogonalEdgeStyle;rounded=0;orthogonalLoop=1;jettySize=auto;html=1;exitX=1;exitY=0.5;exitDx=0;exitDy=0;entryX=0;entryY=0.5;entryDx=0;entryDy=0;" edge="1" parent="1" source="Dh04dN3c_2LMZqxUtAss-23" target="Dh04dN3c_2LMZqxUtAss-4">
          <mxGeometry relative="1" as="geometry" />
        </mxCell>
        <mxCell id="Dh04dN3c_2LMZqxUtAss-26" style="edgeStyle=orthogonalEdgeStyle;rounded=0;orthogonalLoop=1;jettySize=auto;html=1;exitX=0;exitY=0.5;exitDx=0;exitDy=0;" edge="1" parent="1" source="Dh04dN3c_2LMZqxUtAss-23">
          <mxGeometry relative="1" as="geometry">
            <mxPoint x="110" y="310" as="targetPoint" />
          </mxGeometry>
        </mxCell>
        <mxCell id="Dh04dN3c_2LMZqxUtAss-23" value="i = 20" style="rhombus;whiteSpace=wrap;html=1;" vertex="1" parent="1">
          <mxGeometry x="210" y="160" width="80" height="80" as="geometry" />
        </mxCell>
        <mxCell id="Dh04dN3c_2LMZqxUtAss-25" value="NIE" style="text;html=1;align=center;verticalAlign=middle;resizable=0;points=[];autosize=1;strokeColor=none;fillColor=none;" vertex="1" parent="1">
          <mxGeometry x="280" y="175" width="40" height="30" as="geometry" />
        </mxCell>
        <mxCell id="Dh04dN3c_2LMZqxUtAss-27" value="TAK" style="text;html=1;align=center;verticalAlign=middle;resizable=0;points=[];autosize=1;strokeColor=none;fillColor=none;" vertex="1" parent="1">
          <mxGeometry x="135" y="175" width="50" height="30" as="geometry" />
        </mxCell>
        <mxCell id="Dh04dN3c_2LMZqxUtAss-28" value="stop" style="ellipse;whiteSpace=wrap;html=1;" vertex="1" parent="1">
          <mxGeometry x="50" y="310" width="120" height="80" as="geometry" />
        </mxCell>
      </root>
    </mxGraphModel>
  </diagram>
</mxfile>
